<?xml version="1.0" encoding="UTF-8" standalone="no"?>
<!-- Generator: Adobe Illustrator 19.0.0, SVG Export Plug-In . SVG Version: 6.00 Build 0)  -->

<svg
   xmlns:dc="http://purl.org/dc/elements/1.1/"
   xmlns:cc="http://creativecommons.org/ns#"
   xmlns:rdf="http://www.w3.org/1999/02/22-rdf-syntax-ns#"
   xmlns:svg="http://www.w3.org/2000/svg"
   xmlns="http://www.w3.org/2000/svg"
   xmlns:sodipodi="http://sodipodi.sourceforge.net/DTD/sodipodi-0.dtd"
   xmlns:inkscape="http://www.inkscape.org/namespaces/inkscape"
   version="1.1"
   id="money-slots"
   x="0px"
   y="0px"
   viewBox="0 0 2000 2000"
   style="enable-background:new 0 0 2000 2000;"
   xml:space="preserve"
   sodipodi:docname="default-history.svg"
   inkscape:version="0.92.2 5c3e80d, 2017-08-06"><metadata
     id="metadata4025"><rdf:RDF><cc:Work
         rdf:about=""><dc:format>image/svg+xml</dc:format><dc:type
           rdf:resource="http://purl.org/dc/dcmitype/StillImage" /></cc:Work></rdf:RDF></metadata><defs
     id="defs4023" /><sodipodi:namedview
     pagecolor="#ffffff"
     bordercolor="#666666"
     borderopacity="1"
     objecttolerance="10"
     gridtolerance="10"
     guidetolerance="10"
     inkscape:pageopacity="0"
     inkscape:pageshadow="2"
     inkscape:window-width="2866"
     inkscape:window-height="1566"
     id="namedview4021"
     showgrid="false"
     inkscape:zoom="0.6745"
     inkscape:cx="1000"
     inkscape:cy="1000"
     inkscape:window-x="6"
     inkscape:window-y="46"
     inkscape:window-maximized="1"
     inkscape:current-layer="money-slots" /><style
     type="text/css"
     id="style4007">
	.st0{fill:#FEC730;}
	.st1{fill:#F8A231;}
	.st2{fill:#0B8144;}
	.st3{fill:#6FC07D;}
	.st4{fill:#145F33;}
	.st5{fill:#37B059;}
</style><g
     id="XMLID_1_"><circle
       id="XMLID_11_"
       class="st0"
       cx="1000"
       cy="1000"
       r="1000" /><path
       id="XMLID_9_"
       class="st2"
       d="M1633.8,1110.8l-198.2-519c-3.3-8.7-13.1-13-21.7-9.7l-1038,396.4c-8.7,3.3-13,13.1-9.7,21.7   l198.2,519c2.6,6.7,9,10.8,15.7,10.8c2,0,4-0.4,6-1.1l1038-396.4C1632.8,1129.2,1637.1,1119.5,1633.8,1110.8z" /><path
       id="XMLID_8_"
       class="st3"
       d="M1563.2,1020.4l-119.9-314c-47.3,10.3-96-11.5-119.9-53.6l-833,318.2   c10.3,47.3-11.5,96-53.6,119.9l119.9,314c47.3-10.3,96,11.5,119.9,53.6l833-318.2C1499.4,1092.9,1521.1,1044.2,1563.2,1020.4z" /><path
       id="XMLID_7_"
       class="st4"
       d="M1555.6,760.9H444.4c-9.3,0-16.8,7.5-16.8,16.8v555.6c0,9.3,7.5,16.8,16.8,16.8h1111.1   c9.3,0,16.8-7.5,16.8-16.8V777.8C1572.4,768.5,1564.9,760.9,1555.6,760.9z" /><path
       id="XMLID_6_"
       class="st2"
       d="M997.8,760.9H444.4c-9.3,0-16.8,7.5-16.8,16.8v555.6c0,9.3,7.5,16.8,16.8,16.8h553.3   L997.8,760.9L997.8,760.9z" /><path
       id="XMLID_5_"
       class="st3"
       d="M551.9,794.6c-7.3,47.9-45,85.6-92.9,92.9v336.1c47.9,7.3,85.6,45,92.9,92.9h891.7   c7.3-47.9,45-85.6,92.9-92.9V887.5c-47.9-7.3-85.6-45-92.9-92.9H551.9z" /><path
       id="XMLID_4_"
       class="st5"
       d="M1443.6,794.6H997.8v521.9h445.9c7.3-47.9,45-85.6,92.9-92.9V887.5   C1488.6,880.2,1450.9,842.5,1443.6,794.6z" /><ellipse
       id="XMLID_3_"
       class="st2"
       cx="1000"
       cy="1055.6"
       rx="134.7"
       ry="202" /><path
       id="XMLID_2_"
       class="st4"
       d="M1000,853.5c-0.8,0-1.5,0.1-2.2,0.1v403.9c0.7,0,1.5,0.1,2.2,0.1c74.4,0,134.7-90.4,134.7-202   C1134.7,944,1074.4,853.5,1000,853.5z" /></g></svg>